<svg xmlns="http://www.w3.org/2000/svg" xmlns:xlink="http://www.w3.org/1999/xlink" width="385" height="201" version="1.1" viewBox="0 0 385 201"><title>Group 4</title><desc>Created with Sketch.</desc><defs><linearGradient id="linearGradient-1" x1="109.836%" x2="50%" y1="0%" y2="100%"><stop offset="0%" stop-color="#817AE1"/><stop offset="100%" stop-color="#4A44BF"/></linearGradient></defs><g id="Page-1" fill="none" fill-rule="evenodd" stroke="none" stroke-width="1"><g id="Full" fill-rule="nonzero" transform="translate(-914.000000, -1465.000000)"><g id="Feature-Points" transform="translate(-132.000000, 911.000000)"><g id="2" transform="translate(507.000000, 554.000000)"><g id="Group-4" transform="translate(539.000000, 0.000000)"><ellipse id="Oval-8" cx="281.5" cy="102.5" fill="#D3DDF7" opacity=".256" rx="103.5" ry="98.5"/><ellipse id="Oval-8" cx="281.5" cy="98.5" fill="url(#linearGradient-1)" fill-opacity=".5" rx="103.5" ry="98.5"/><g id="usb-key" transform="translate(0.000000, 49.000000)"><rect id="Rectangle-21" width="60" height="76" x="271" y="15" fill="#FFF"/><rect id="Rectangle-21" width="30" height="53" x="251" y="26" fill="#FFF3E6"/><rect id="Rectangle-21" width="14" height="16" x="289" y="30" fill="#3731AA"/><rect id="Rectangle-21" width="14" height="16" x="289" y="60" fill="#3731AA"/><rect id="Rectangle-21" width="270" height="110" x="0" y="0" fill="#292580"/><circle id="Oval-6" cx="58" cy="54" r="38" fill="#FFF"/><g id="CNAB-Logo" transform="translate(26.000000, 23.000000)"><rect id="Rectangle" width="29" height="29" x="14" y="35" fill="#FFF3E6"/><rect id="Rectangle" width="23" height="24" x="34" y="41" fill="#2EC4B6"/><rect id="Rectangle" width="21" height="20" x="38" y="9" fill="#D3DDF7"/><polygon id="Triangle" fill="#3731AA" points="28.5 6 43 35 14 35"/><circle id="Oval-2" cx="14.5" cy="49.5" r="14.5" fill="#E83683"/><polygon id="Path-5" fill="#CF6" points="22 9 9 34 9 9"/><g id="corner" fill="#3731AA" transform="translate(0.000000, 1.000000)"><rect id="Rectangle-2" width="2.857" height="20" x="0" y="0"/><rect id="Rectangle-2" width="2.857" height="20" x="8.571" y="-8.571" transform="translate(10.000000, 1.428571) rotate(-90.000000) translate(-10.000000, -1.428571)"/></g><g id="corner" fill="#3731AA" transform="translate(55.500000, 10.500000) scale(-1, 1) translate(-55.500000, -10.500000) translate(45.000000, 0.000000)"><rect id="Rectangle-2" width="3" height="20" x="0" y="1"/><rect id="Rectangle-2" width="3" height="20" x="9" y="-7.571" transform="translate(10.500000, 2.428571) rotate(-90.000000) translate(-10.500000, -2.428571)"/></g><g id="corner" fill="#3731AA" transform="translate(55.500000, 62.500000) scale(-1, -1) translate(-55.500000, -62.500000) translate(45.000000, 52.000000)"><rect id="Rectangle-2" width="3" height="20" x="0" y="1"/><rect id="Rectangle-2" width="3" height="20" x="9" y="-7.571" transform="translate(10.500000, 2.428571) rotate(-90.000000) translate(-10.500000, -2.428571)"/></g></g></g></g></g></g></g></g></svg>